:SAMPLES-PER-SECOND 30
:FULLY-SPECIFIED
:DEGREES
206
root  -43.9989 34.64 4.03296 -169.356 85.1595 -178.053
RightUpLeg  -15.7558 -17.9231 -1.1232
RightLeg  14.4622 -5.03548 -0.956459
RightFoot  4.35816 0.0308992 -0.274167
RightToes  -28.5261 -0.135439 -0.247315
Spine  -0.357648 -0.34888 0.866072
Spine1  -0.724968 -0.899587 2.4387
HEad  -41.8757 7.03379 -3.23722
LeftShoulder1  -1.94126e-019 -3.10601e-018 -2.51263e-017
LeftArm  -13.7363 28.9044 -75.5767
LeftForeArm  36.0387 -9.7419 -1.70887
LeftHand  -0.424176 -0.030991 9.15501
RightShoulder  -4.96962e-017 0 -2.36833e-017
RightArm  -35.821 -27.6125 72.4855
RightForeArm  65.9545 7.99914 1.34653
RightHand  -0.321028 -2.00382 -10.7943
LeftUpLeg  -18.115 7.45842 3.32365
LeftLeg  17.2176 9.1446 2.18862
LeftFoot  4.44399 -0.00963445 0.804936
LeftToes  -36.2144 2.40056e-006 -7.68412e-008
207
root  -43.7714 34.6484 4.02847 -169.627 85.0291 -177.791
RightUpLeg  -14.6964 -17.8962 -1.35548
RightLeg  14.2882 -5.18876 -0.969135
RightFoot  4.15155 0.0304822 -0.265538
RightToes  -28.1028 -0.134943 -0.24714
Spine  -0.517813 -0.318459 0.859476
Spine1  -1.04103 -0.845266 2.42731
HEad  -42.2123 7.38024 -3.24942
LeftShoulder1  -1.94126e-019 -3.10601e-018 -2.51263e-017
LeftArm  -14.9347 30.6229 -74.8018
LeftForeArm  36.2809 -8.91946 -1.55917
LeftHand  -0.442114 -0.266345 9.16374
RightShoulder  -4.96962e-017 0 -2.36833e-017
RightArm  -34.8744 -28.8201 72.0607
RightForeArm  64.4549 8.79892 1.45172
RightHand  -0.325192 -1.86776 -10.5304
LeftUpLeg  -17.1851 7.19868 3.49245
LeftLeg  17.1191 9.17758 2.17987
LeftFoot  4.3573 -0.00896594 0.791656
LeftToes  -35.6467 2.40056e-006 -7.68412e-008
208
root  -43.5456 34.6601 4.02356 -169.764 84.9685 -177.47
RightUpLeg  -13.6078 -17.5277 -1.5801
RightLeg  13.8928 -5.58896 -1.00371
RightFoot  4.08182 0.0318034 -0.281341
RightToes  -28.0075 -0.134386 -0.246968
Spine  -0.717717 -0.250927 0.851829
Spine1  -1.43847 -0.694616 2.40197
HEad  -42.4687 7.8098 -3.32217
LeftShoulder1  -1.94126e-019 -3.10601e-018 -2.51263e-017
LeftArm  -16.4026 31.8566 -74.4332
LeftForeArm  36.2762 -8.17576 -1.42569
LeftHand  -0.438103 -0.146515 9.26712
RightShoulder  -4.96962e-017 0 -2.36833e-017
RightArm  -33.9467 -29.4027 71.7801
RightForeArm  63.234 9.34624 1.49999
RightHand  -0.326012 -1.84977 -10.506
LeftUpLeg  -16.2515 6.79253 3.65998
LeftLeg  16.8789 9.5223 2.21915
LeftFoot  4.37079 -0.0112059 0.823046
LeftToes  -34.7689 2.40056e-006 -7.68412e-008
209
root  -43.3028 34.6774 4.00651 -170.478 85.0023 -177.692
RightUpLeg  -12.4488 -17.363 -1.86513
RightLeg  13.4282 -5.72083 -0.979463
RightFoot  4.03233 0.0318092 -0.27792
RightToes  -27.9446 -0.133788 -0.2468
Spine  -0.948655 -0.181822 0.833956
Spine1  -1.90098 -0.5254 2.34744
HEad  -42.5602 8.51294 -3.37342
LeftShoulder1  -1.94126e-019 -3.10601e-018 -2.51263e-017
LeftArm  -18.0826 32.8214 -74.5036
LeftForeArm  36.1429 -7.62676 -1.32804
LeftHand  -0.428014 0.0826975 9.42509
RightShoulder  -4.96962e-017 0 -2.36833e-017
RightArm  -33.0188 -29.6007 71.6136
RightForeArm  62.3258 9.91202 1.52967
RightHand  -0.318673 -1.85177 -10.2687
LeftUpLeg  -15.1523 6.35079 3.75566
LeftLeg  16.5011 9.91435 2.24128
LeftFoot  4.32225 -0.0131575 0.849447
LeftToes  -34.1702 2.40056e-006 -7.68412e-008
210
root  -43.0654 34.6981 3.98782 -171.247 85.136 -177.942
RightUpLeg  -11.2439 -16.9699 -2.16768
RightLeg  12.8872 -5.96877 -0.963813
RightFoot  4.02927 0.0323916 -0.282303
RightToes  -27.7546 -0.133166 -0.246636
Spine  -1.15658 -0.0777745 0.809221
Spine1  -2.32011 -0.275363 2.27609
HEad  -42.7255 9.20297 -3.34291
LeftShoulder1  -1.94126e-019 -3.10601e-018 -2.51263e-017
LeftArm  -18.7681 33.3918 -74.8848
LeftForeArm  35.3734 -7.51697 -1.30935
LeftHand  -0.417695 0.311525 9.59171
RightShoulder  -4.96962e-017 0 -2.36833e-017
RightArm  -32.012 -29.306 71.6027
RightForeArm  61.3259 10.4084 1.53894
RightHand  -0.3179 -1.81513 -10.1421
LeftUpLeg  -13.9995 5.74587 3.83751
LeftLeg  16.1064 10.539 2.3053
LeftFoot  4.2714 -0.0163629 0.894858
LeftToes  -33.4734 2.40056e-006 -7.68412e-008
211
root  -42.853 34.7145 3.97252 -171.317 85.2431 -177.58
RightUpLeg  -10.2006 -16.6553 -2.3644
RightLeg  12.3923 -6.16129 -0.940253
RightFoot  4.02886 0.033056 -0.287409
RightToes  -27.5634 -0.132537 -0.246477
Spine  -1.39759 0.017308 0.795844
Spine1  -2.80917 -0.0353738 2.22854
HEad  -42.9317 9.89923 -3.20494
LeftShoulder1  -1.94126e-019 -3.10601e-018 -2.51263e-017
LeftArm  -19.3555 33.7159 -75.5885
LeftForeArm  34.5718 -8.01546 -1.39945
LeftHand  -0.403137 0.363609 9.34848
RightShoulder  -4.96962e-017 0 -2.36833e-017
RightArm  -30.3997 -28.7693 71.7123
RightForeArm  59.8943 11.0804 1.5286
RightHand  -0.311756 -1.80831 -9.92261
LeftUpLeg  -13.0852 5.11703 3.94076
LeftLeg  15.9063 11.1598 2.39893
LeftFoot  4.26142 -0.0201871 0.949437
LeftToes  -32.7693 2.40056e-006 -7.68412e-008
212
root  -42.6716 34.7314 3.95504 -171.029 85.3368 -176.974
RightUpLeg  -9.36422 -16.4817 -2.50216
RightLeg  11.96 -6.21816 -0.900955
RightFoot  4.07242 0.0333586 -0.286882
RightToes  -27.555 -0.131919 -0.246323
Spine  -1.63791 0.122155 0.785899
Spine1  -3.29933 0.221261 2.19516
HEad  -43.2048 10.468 -3.05232
LeftShoulder1  -1.94126e-019 -3.10601e-018 -2.51263e-017
LeftArm  -18.8192 33.6898 -76.424
LeftForeArm  34.2847 -9.15236 -1.60361
LeftHand  -0.404307 -0.0333933 8.72421
RightShoulder  -4.96962e-017 0 -2.36833e-017
RightArm  -29.1976 -27.9615 71.9918
RightForeArm  58.9263 11.8017 1.48942
RightHand  -0.311891 -1.60755 -9.88109
LeftUpLeg  -12.3865 4.43341 4.02491
LeftLeg  15.773 11.7822 2.50243
LeftFoot  4.39784 -0.026116 1.03631
LeftToes  -31.5788 2.40056e-006 -7.68412e-008
213
root  -42.5075 34.7493 3.93638 -170.375 85.4364 -175.935
RightUpLeg  -8.51205 -16.4429 -2.62224
RightLeg  11.5644 -6.13823 -0.846219
RightFoot  4.1197 0.0330903 -0.277721
RightToes  -27.6163 -0.13133 -0.246175
Spine  -1.76632 0.248368 0.775446
Spine1  -3.56328 0.516458 2.17312
HEad  -43.8088 10.9582 -2.84156
LeftShoulder1  -1.94126e-019 -3.10601e-018 -2.51263e-017
LeftArm  -17.4139 33.2149 -77.434
LeftForeArm  33.8894 -11.1551 -1.96765
LeftHand  -0.389131 -0.137063 8.24972
RightShoulder  -4.96962e-017 0 -2.36833e-017
RightArm  -26.9293 -26.9792 72.3692
RightForeArm  57.0047 12.9307 1.38725
RightHand  -0.320167 -1.56719 -9.73489
LeftUpLeg  -11.6311 3.83544 4.10489
LeftLeg  15.555 12.3876 2.58026
LeftFoot  4.78336 -0.0358982 1.18269
LeftToes  -29.9814 2.40056e-006 -7.68412e-008
214
root  -42.3694 34.7682 3.91342 -169.829 85.5523 -175.02
RightUpLeg  -7.71827 -16.2956 -2.74642
RightLeg  11.1657 -6.14183 -0.80323
RightFoot  4.19772 0.033503 -0.277807
RightToes  -27.5462 -0.130787 -0.246034
Spine  -1.8427 0.363531 0.750108
Spine1  -3.71825 0.786383 2.13106
HEad  -44.4118 11.3712 -2.71102
LeftShoulder1  -1.94126e-019 -3.10601e-018 -2.51263e-017
LeftArm  -15.5014 32.4619 -78.4232
LeftForeArm  33.2041 -13.8161 -2.43849
LeftHand  -0.37513 -0.456908 7.5469
RightShoulder  -4.96962e-017 0 -2.36833e-017
RightArm  -24.3078 -25.8012 72.8192
RightForeArm  54.9692 14.191 1.24775
RightHand  -0.328836 -1.45573 -9.57873
LeftUpLeg  -10.8883 2.85628 4.12752
LeftLeg  15.2903 13.4149 2.72645
LeftFoot  4.99097 -0.0462092 1.33693
LeftToes  -28.5069 2.40056e-006 -7.68412e-008
215
root  -42.2465 34.7952 3.89114 -169.252 85.7418 -174.065
RightUpLeg  -6.87945 -15.8861 -2.86248
RightLeg  10.6034 -6.34753 -0.766803
RightFoot  4.42591 0.0362981 -0.311443
RightToes  -27.6553 -0.130308 -0.245901
Spine  -1.88158 0.505363 0.716692
Spine1  -3.79202 1.09353 2.08354
HEad  -45.1141 11.6997 -2.56599
LeftShoulder1  -1.94126e-019 -3.10601e-018 -2.51263e-017
LeftArm  -13.1388 31.4598 -79.3478
LeftForeArm  32.3693 -16.838 -2.91378
LeftHand  -0.361776 -0.845936 6.85914
RightShoulder  -4.96962e-017 0 -2.36833e-017
RightArm  -21.9278 -24.5513 73.3186
RightForeArm  53.3569 15.4496 1.13908
RightHand  -0.330237 -1.4566 -9.62242
LeftUpLeg  -10.0855 2.35167 4.15006
LeftLeg  14.873 14.2955 2.79475
LeftFoot  4.748 -0.0485439 1.36685
LeftToes  -24.6479 2.40056e-006 -7.68412e-008
